PathFileType	4	(X/Y/Z)	C:/Users/beibeiliu/ov580/test_trc/User3\sequence.22_training_dense_right.trc
DataRate	CameraRate	NumFrames	NumMarkers	Units	OrigDataRate	OrigDataStartFrame	OrigNumFrames
120	120	18	19	mm	120	27	106
Frame#	Time	ThumbCMC			ThumbMCP			ThumbIP			ThumbTip			IndexMCP			IndexPIP			IndexTip			MiddleMCP			MiddlePIP			MiddleTip			RingMCP			RingPIP			RingTip			PinkyMCP			PinkyPIP			PinkyTip			BackHand1			BackHand2			BackHand3	
		X0	Y0	Z0	X1	Y1	Z1	X2	Y2	Z2	X3	Y3	Z3	X4	Y4	Z4	X5	Y5	Z5	X6	Y6	Z6	X7	Y7	Z7	X8	Y8	Z8	X9	Y9	Z9	X10	Y10	Z10	X11	Y11	Z11	X12	Y12	Z12	X13	Y13	Z13	X14	Y14	Z14	X15	Y15	Z15	X16	Y16	Z16	X17	Y17	Z17	X18	Y18	Z18	
26	0.216667	158.496	56.7911	17.2969	141.897	54.3515	-6.1108	127.274	46.5951	-31.2121	118.469	31.7551	-50.2338	148.374	22.7395	-44.5218	119.859	9.4908	-35.8301	129.362	28.7091	-7.755	150.815	2.5268	-37.2972	124.55	-3.59435	-14.9409	146.231	13.431	9.64354	153.036	-11.9854	-27.2619	130.011	-12.9144	-5.95281	145.306	4.45059	18.8937	177.45	-24.7257	-22.3809	161.169	-31.0424	-36.828	143.505	-42.8354	-46.0275	199.768	13.4625	1.98444	208.052	20.3855	31.3187	192.691	47.6121	10.2998	
27	0.225	170.251	66.3924	18.0741	152.595	69.0904	-7.89187	137.183	60.6048	-37.602	123.524	54.137	-52.0331	146.201	29.468	-45.9195	115.886	32.8745	-38.5013	129.149	46.0308	-7.92308	141.032	12.7817	-37.4883	114.343	16.5911	-17.497	142.867	30.6986	9.0071	143.99	-4.5353	-25.3251	117.052	5.65457	-9.55284	135.885	16.245	17.8994	158.071	-20.8206	-19.5717	142.035	-29.0586	-32.1587	120.138	-28.279	-48.255	191.955	4.81134	1.76887	204.225	15.2578	33.149	195.693	39.9217	6.10117	
28	0.233333	180.699	63.7421	14.8549	167.183	70.5029	-13.088	152.785	69.9185	-36.0055	137.891	67.4467	-55.5143	147.936	39.8223	-49.8084	121.247	52.5102	-42.1308	137.532	59.0884	-9.7696	136.886	23.8176	-39.4516	114.306	39.4038	-23.5635	141.677	41.6819	7.62447	131.917	8.87947	-27.8034	110.454	22.6283	-11.8662	129.994	31.5579	13.34	141.828	-12.1631	-19.0886	125.877	-13.7736	-34.8291	108.477	-15.7471	-47.9751	183.501	1.8913	4.64816	194.106	5.21796	35.189	197.244	34.2508	5.42039	
29	0.241667	189.146	56.9006	17.4491	179.63	67.4577	-10.5586	168.463	71.3838	-41.311	154.162	67.7601	-60.4039	151.579	40.2304	-49.8519	131.702	61.3061	-46.0332	143.407	66.1635	-15.0319	136.076	30.2525	-41.588	120.058	52.2794	-24.879	148.501	49.5829	4.09095	129.174	16.6472	-28.492	112.167	40.537	-15.9271	134.28	43.6405	9.18904	131.88	-3.28174	-18.1557	116.195	-2.09796	-37.4905	102.2	-1.31512	-52.0826	171.145	-2.7522	5.65201	181.604	-2.41706	37.2924	196.977	25.6215	10.9759	
30	0.25	197.132	46.0878	14.9361	192.898	55.0438	-13.5265	184.878	59.5217	-40.1808	174.013	60.6745	-59.7939	165.81	36.6339	-52.1554	146.395	61.4695	-49.6098	156.735	66.8335	-20.1762	143.344	31.6221	-43.7838	132.473	59.8954	-31.0925	152.784	49.2038	0.254943	129.798	22.5052	-34.0303	121.08	50.4851	-24.9923	139.777	44.7257	5.3049	128.514	3.87946	-21.2769	118.786	8.39864	-41.5338	107.239	10.3616	-58.4407	161.132	-5.80757	8.83538	169.881	-4.41649	36.7095	194.048	11.9063	13.5834	
31	0.258333	201.805	32.3265	18.6199	202.163	38.575	-14.2387	199.646	41.8308	-40.5812	192.409	44.7161	-64.5863	173.918	22.0747	-50.4373	165.254	55.1385	-54.9965	171.403	58.0053	-22.4567	152.015	25.9129	-48.8404	146.317	55.9811	-39.2948	164.384	44.8717	-2.84866	138.159	22.0499	-39.4016	132.538	50.01	-31.167	148.781	47.9887	-4.21484	127.983	3.05137	-24.0992	124.013	7.70113	-44.8441	118.188	12.3994	-67.1236	157.602	-9.33678	7.86479	165.037	-10.0199	39.4942	188.187	-0.958413	16.6648	
32	0.266667	208.44	26.3248	24.9851	211.93	29.3809	-10.0863	214.117	29.8628	-39.2482	208.127	31.2635	-61.7142	188.21	11.9515	-48.8368	184.239	47.1914	-56.1033	186.164	51.6468	-26.4908	167.346	15.4738	-47.7658	164.801	49.8111	-43.8517	169.2	39.5865	-5.62892	149.81	13.8166	-41.3145	146.565	44.1131	-38.8765	155.827	40.0203	-5.32202	138.432	-2.21288	-26.1485	132.208	-0.28573	-49.0266	132.598	6.47828	-74.5812	158.173	-16.15	10.2117	158.393	-12.6715	38.9201	190.012	-8.239	17.8599	
33	0.275	210.555	32.1841	27.944	219.816	37.9519	-0.633354	225.094	37.9409	-30.5785	226.535	36.0398	-56.19	208.163	16.0622	-48.8423	197.033	44.3647	-56.7648	190.668	50.8889	-24.8956	182.011	11.987	-46.2391	174.546	45.5557	-46.0862	177.804	41.0455	-7.29572	165.05	10.3875	-45.1984	156.186	37.5334	-41.5086	160.098	36.6191	-9.27017	156.498	-9.73163	-31.7366	154.821	-8.63981	-52.7382	154.53	-5.74056	-79.256	174.582	-18.9212	10.6274	171.562	-13.6489	37.3832	204.634	-1.41508	25.6666	
34	0.283333	215.04	45.1231	28.8091	227.715	53.9839	0.641835	232.344	54.2986	-24.0573	239.92	56.1427	-50.4243	224.845	26.5487	-42.427	208.146	55.6426	-52.2582	198.007	57.7464	-23.1392	208.371	22.897	-47.4015	187.735	46.0011	-47.3387	186.151	40.4486	-6.1703	192.415	10.6673	-43.571	173.039	31.7348	-45.0828	175.378	36.1412	-8.82306	186.867	-10.5534	-32.3836	187.54	-9.76002	-54.7685	191.598	-5.59924	-76.8148	197.284	-12.4232	12.9114	190.59	-7.77303	41.1697	220.663	11.6664	27.069	
35	0.291667	212.331	61.0407	33.2358	226.685	73.9569	2.61012	235.358	80.0804	-22.6518	240.022	77.1718	-44.9561	242.377	52.9879	-39.901	216.217	61.6446	-51.6887	200.933	65.1878	-22.2773	227.304	35.883	-45.5121	197.83	48.6313	-46.4022	192.444	41.912	-8.14616	218.333	16.2561	-40.9513	191.329	33.8659	-44.5651	185.585	32.8337	-9.74886	224.658	-1.21232	-31.621	225.977	0.619704	-48.9842	228.92	4.84762	-74.5839	230.017	3.48035	17.0872	213.412	1.85846	45.2065	233.592	30.2045	32.9828	
36	0.3	204.697	71.8131	30.6225	209.369	87.3337	6.13207	223.473	98.7699	-23.0055	228.528	100.874	-43.1991	241.854	74.6562	-34.4906	213.261	77.2234	-50.0941	197.594	66.1515	-23.9494	235.925	59.3541	-40.2317	205.884	54.8927	-46.1106	197.471	49.9635	-5.23216	236.69	37.0852	-37.0074	204.911	36.9132	-43.5301	196.209	36.536	-11.8426	248.341	18.3638	-25.2877	254.846	24.7242	-50.7698	257.299	30.4795	-66.2814	244.473	27.6799	20.2917	232.032	21.1253	43.7974	232.799	53.626	38.9918	
37	0.308333	187.897	71.6535	31.2965	188.538	94.3559	6.32757	200.097	110.67	-21.9846	207.168	114.576	-42.09	227.728	95.7575	-28.8936	206.007	84.6348	-49.9002	187.832	72.2166	-22.4775	232.383	77.7807	-37.506	206.283	60.9477	-46.1127	199.403	51.258	-7.66856	240.87	59.6308	-34.5776	211.232	46.3612	-43.4385	199.717	41.8532	-15.0222	258.899	47.9876	-23.8313	263.068	56.747	-45.4646	264.831	66.0371	-64.8255	247.491	50.6971	25.1947	237.636	36.3613	45.329	224.965	72.0224	36.9204	
38	0.316667	175.71	69.3726	29.7905	171.944	91.4619	5.26521	178.675	111.119	-20.9226	182.971	117.12	-40.0785	209.167	106.867	-31.9173	190.46	89.8217	-50.3505	182.041	70.9978	-23.8206	222.856	90.2778	-35.8411	199.796	70.3099	-47.7215	193.44	56.6499	-8.46425	230.782	77.6045	-36.1362	214.531	56.2884	-46.906	200.186	45.9853	-16.9769	253.148	71.504	-19.8192	257.537	79.0059	-38.8916	257.396	90.4887	-58.5796	238.572	68.3015	24.7583	231.208	52.8255	45.226	211.722	80.5911	38.4812	
39	0.325	163.673	67.6343	25.9246	161.88	89.4448	-0.616831	165.703	105.257	-24.2685	166.858	112.833	-43.8559	191.614	110.596	-29.6253	178.506	91.8734	-55.1367	171.539	69.2587	-28.8386	205.747	97.4248	-40.4878	192.401	67.8739	-49.691	191.929	57.1344	-11.4012	222.899	83.131	-40.0998	207.075	59.5802	-48.5236	197.959	48.0414	-17.5785	241.064	85.7886	-21.8506	246.471	94.5086	-42.8278	246.507	103.906	-64.3414	231.731	77.8629	21.5123	226.255	57.0817	43.9583	198.048	85.034	35.3883	
40	0.333333	158.468	67.6268	19.2151	151.411	81.1685	-6.84832	150.09	96.1072	-33.1272	154.966	104.611	-53.7881	178.951	106.749	-40.8624	171.612	81.927	-62.2292	168.115	62.911	-31.5325	198.803	92.5538	-47.7907	184.828	65.1964	-56.7483	185.278	54.8982	-16.5212	215.616	81.8657	-43.5471	201.258	55.7281	-53.2858	196.16	43.5372	-22.6006	236.156	86.8366	-31.2394	237.464	94.4038	-52.782	237.647	101.369	-73.6513	220.459	84.5999	13.66	220.143	66.9384	38.9673	191.071	84.5324	26.9492	
41	0.341667	155.126	67.1772	13.3386	142.397	75.3533	-13.7485	144.621	86.4457	-43.7698	145.451	91.2394	-68.3107	169.269	97.2451	-54.5303	162.563	67.9064	-69.5723	159	55.3185	-39.3661	187.581	82.1612	-60.7829	180.73	51.4608	-60.6603	182.949	52.0613	-20.3462	206.707	72.7752	-56.0466	194.89	47.184	-58.9824	191.466	42.2213	-22.1694	229.16	81.1521	-40.4533	225.796	86.8698	-66.1809	229.466	88.2712	-85.5673	215.732	87.4428	5.07575	214.689	73.8038	27.2332	181.474	89.2189	17.6966	
42	0.35	151.034	69.497	6.79336	138.146	70.1303	-20.2215	135.33	74.8977	-53.2205	135.999	74.8403	-77.8224	165.191	82.3106	-67.1936	157.449	54.7016	-74.8125	155.151	46.4065	-42.7013	183.09	69.0456	-68.994	174.898	40.6078	-65.3291	175.195	46.6184	-24.2271	196.778	64.3886	-60.9095	188.546	34.8058	-58.2087	182.528	36.1528	-26.7075	222.777	73.8788	-50.4269	222.472	74.1535	-71.8593	220.93	73.0085	-96.5259	209.036	88.6337	-6.14778	210.669	80.3583	18.608	176.296	92.9522	3.62221	
43	0.358333	142.264	70.1812	2.53825	134.02	64.9402	-25.2568	129.325	62.3814	-55.0154	130.448	57.7276	-77.2248	159.431	74.1842	-69.7658	147.686	39.8183	-74.4451	147.553	37.8466	-43.3868	175.945	62.4371	-69.6871	164.524	30.9663	-63.7621	166.76	42.1925	-26.6348	192.459	56.4747	-64.5507	181.91	26.0377	-55.3192	181.474	33.212	-24.5048	216.379	67.7386	-57.458	213.057	63.3848	-77.7812	214.348	56.9555	-100.23	201.683	88.3942	-14.4105	203.819	86.3215	11.7305	172.998	92.3747	-1.34075	
